<?xml version="1.0" encoding="utf-8" standalone="no"?>
<svg viewBox="0 0 437.21332 53.773335" height="53.773335"
    width="437.21332" xml:space="preserve" version="1.1"
    xmlns="http://www.w3.org/2000/svg">
    <style type="text/css"> path{ fill:#fff; } </style>

    <g transform="matrix(1.3333333,0,0,-1.3333333,0,53.773333)">
        <g transform="scale(0.1), translate(10)">
            <path d="m 985.133,252.598 c 0,-32.297 -16.149,-47.852 -45.457,-48.446 H 687.859 v 101.68 h 251.817 c 29.308,-0.598 45.457,-16.148 45.457,-48.449 z m -10.766,145.949 c -10.168,1.793 -26.316,2.988 -37.683,2.988 H 580.195 V 0.183594 H 687.859 V 112.035 h 248.825 c 16.75,0 33.496,1.797 43.664,3.59 70.582,11.965 108.862,60.41 108.862,140.563 0,81.945 -40.08,132.187 -114.843,142.359" />
            <path d="M 3279.06,0 H 2851.4 v 401.535 h 427.66 v -92.941 h -329.85 v -64.395 h 329.85 V 156.727 H 2949.21 V 92.9414 h 329.85 V 0 0" />
            <path d="m 1339.06,0.183594 h 107.67 V 305.832 h 186.62 v 95.703 h -480.91 v -95.703 h 186.62 V 0.183594 v 0" />
            <path d="M 152.523,0.183594 H 337.949 C 437.238,1.38281 488.68,53.418 490.473,152.711 V 401.535 H 386.398 V 152.711 c 0,-35.891 -20.933,-55.0313 -56.824,-56.8243 H 160.898 c -37.082,2.3906 -55.625,19.7383 -56.824,56.8243 V 401.535 H 0 V 152.711 C 1.79297,53.418 53.2344,1.38281 152.523,0.183594 v 0" />
            <path d="M 2780.6,0.183594 H 2645.42 L 2486.32,159.289 2327.21,0.183594 h -65.79 V 403.328 h 96.3 V 165.867 l 234.47,235.668 h 136.37 L 2553.91,226.879 2780.6,0.183594 v 0" />
            <path d="m 2157.32,142.57 -255.58,255.586 -3.39,3.379 -3.38,-3.379 -255.57,-255.582 -1.41,-1.398 V 139.195 11.9219 0.378906 l 8.16,8.160154 252.2,252.21494 252.21,-252.21494 8.16,-8.160154 V 11.9219 139.191 v 1.981 l -1.4,1.398" />
        </g>
    </g>
</svg>
